M48
; DRILL file {KiCad 7.0.1} date Tue Apr 25 16:28:16 2023
; FORMAT={-:-/ absolute / inch / decimal}
; #@! TF.CreationDate,2023-04-25T16:28:16-04:00
; #@! TF.GenerationSoftware,Kicad,Pcbnew,7.0.1
; #@! TF.FileFunction,Plated,1,2,PTH
FMAT,2
INCH
; #@! TA.AperFunction,Plated,PTH,ViaDrill
T1C0.0157
; #@! TA.AperFunction,Plated,PTH,ComponentDrill
T2C0.0433
%
G90
G05
T1
X3.1523Y-1.5332
X3.2842Y-1.8336
X3.4454Y-2.6361
X3.4592Y-1.9826
X3.5112Y-3.8124
X3.5114Y-3.199
X3.5548Y-2.9144
X3.6346Y-1.9103
X3.7387Y-2.6242
X3.7681Y-1.9103
X3.8024Y-2.4606
X3.8631Y-3.1995
X3.8647Y-3.2582
X3.8781Y-2.6134
X3.8927Y-2.4723
X3.9007Y-1.9072
X3.9185Y-1.2698
X3.9196Y-1.7525
X3.9684Y-2.6136
X4.0031Y-2.4556
X4.0082Y-1.9092
X4.0102Y-1.6383
X4.0586Y-1.2678
X4.0757Y-3.5381
X4.0757Y-3.5853
X4.2045Y-2.685
X4.2067Y-2.8125
X4.2767Y-3.4372
X4.3157Y-3.1252
X4.3921Y-2.8473
X4.452Y-2.3583
X4.4549Y-2.9685
X4.4693Y-2.3162
X4.4753Y-2.0039
X4.5444Y-2.8469
X4.5736Y-2.5316
X4.6822Y-2.7351
X4.7604Y-2.3504
X4.782Y-2.5709
X4.885Y-2.0773
X4.8933Y-2.2481
X5.4351Y-1.8968
X5.8897Y-2.4189
X5.8917Y-2.5282
X5.923Y-2.3071
T2
X2.875Y-2.2105
X2.875Y-2.3105
X2.875Y-2.4105
X2.875Y-2.5105
X2.875Y-2.6105
X2.875Y-2.7105
X5.1202Y-2.8071
X5.2202Y-2.8071
X5.3202Y-2.8071
X5.4202Y-2.8071
X5.5202Y-2.8071
T0
M30
